<?xml version="1.0" encoding="utf-8"?>
<!-- Generator: Adobe Illustrator 27.0.0, SVG Export Plug-In . SVG Version: 6.00 Build 0)  -->
<svg version="1.1" id="Layer_1" xmlns="http://www.w3.org/2000/svg" xmlns:xlink="http://www.w3.org/1999/xlink" x="0px" y="0px"
	 viewBox="0 0 841.89 595.28" style="enable-background:new 0 0 841.89 595.28;" xml:space="preserve">
<style type="text/css">
	.st0{fill:#FCF5ED;}
	.st1{fill:#23344D;}
	.st2{fill:#FFF200;}
</style>
<polygon class="st0" points="533.77,177.38 264.11,484.64 285.01,509.41 477.82,504.82 554.87,433.28 "/>
<path class="st1" d="M578.45,192.55v211.5c0,53.25-13.16,88.74-39.45,106.49c-26.31,17.75-67.73,26.62-124.26,26.62H253.97
	c-11.8,0-17.7-8.87-17.7-26.62V86.06c0-17.75,5.9-26.62,17.7-26.62h165.19c26.55,0,48.67,1.61,66.37,4.81
	c17.7,3.21,34.04,9.5,49.04,18.86c14.99,9.37,26.05,23.05,33.19,41.04C574.88,142.15,578.45,164.95,578.45,192.55z M528.29,199.47
	c0,0-8.08,233.84-243.29,283.03C285.01,482.51,595.25,575.69,528.29,199.47z"/>
<path class="st2" d="M782.33,298.3"/>
</svg>
